<?xml version="1.0" encoding="UTF-8"?>
<!-- Generator: Adobe Illustrator 20.0.0, SVG Export Plug-In . SVG Version: 6.00 Build 0)  -->
<svg xmlns="http://www.w3.org/2000/svg" xmlns:xlink="http://www.w3.org/1999/xlink" xmlns:dc="http://purl.org/dc/elements/1.1/" xmlns:cc="http://creativecommons.org/ns#" xmlns:rdf="http://www.w3.org/1999/02/22-rdf-syntax-ns#" version="1.1" id="DESIGNS" x="0px" y="0px" width="32px" height="32px" viewBox="0 0 32 32" style="enable-background:new 0 0 32 32;" xml:space="preserve">
<title property="dc:title">to collect</title><desc property="dc:description">An icon for "collect" from the Open series on to [icon]. Downloaded from http://www.toicon.com/icons/open_collect by 91.89.168.61 on 2019-11-27. Licensed CC-BY, see http://toicon.com/license/ for details.</desc>
<g>
	<g>
		<path class="open_een" d="M7,24c1.103,0,2-0.897,2-2s-0.897-2-2-2s-2,0.897-2,2S5.897,24,7,24z M7,21c0.552,0,1,0.448,1,1    s-0.448,1-1,1s-1-0.448-1-1S6.448,21,7,21z" style="fill: #0B1719;"/>
		<path class="open_een" d="M16,24c1.103,0,2-0.897,2-2s-0.897-2-2-2s-2,0.897-2,2S14.897,24,16,24z M16,21c0.552,0,1,0.448,1,1    s-0.448,1-1,1s-1-0.448-1-1S15.448,21,16,21z" style="fill: #0B1719;"/>
		<path class="open_een" d="M25,24c1.103,0,2-0.897,2-2s-0.897-2-2-2s-2,0.897-2,2S23.897,24,25,24z M25,21c0.552,0,1,0.448,1,1    s-0.448,1-1,1s-1-0.448-1-1S24.448,21,25,21z" style="fill: #0B1719;"/>
		<path class="open_een" d="M8.5,9C8.776,9,9,8.776,9,8.5S8.776,8,8.5,8h-3C5.224,8,5,8.224,5,8.5S5.224,9,5.5,9H8.5z" style="fill: #0B1719;"/>
		<path class="open_een" d="M17.5,9C17.776,9,18,8.776,18,8.5S17.776,8,17.5,8h-3C14.224,8,14,8.224,14,8.5S14.224,9,14.5,9H17.5z" style="fill: #0B1719;"/>
		<path class="open_een" d="M26.5,9C26.776,9,27,8.776,27,8.5S26.776,8,26.5,8h-3C23.224,8,23,8.224,23,8.5S23.224,9,23.5,9H26.5z" style="fill: #0B1719;"/>
		<path class="open_een" d="M28.5,2h-7c-0.384,0-0.734,0.145-1,0.383C20.234,2.145,19.884,2,19.5,2h-7c-0.384,0-0.734,0.145-1,0.383    C11.234,2.145,10.884,2,10.5,2h-7C2.673,2,2,2.673,2,3.5C2,3.776,2.224,4,2.5,4S3,3.776,3,3.5C3,3.225,3.225,3,3.5,3h7    C10.775,3,11,3.225,11,3.5C11,3.776,11.224,4,11.5,4S12,3.776,12,3.5C12,3.225,12.225,3,12.5,3h7C19.775,3,20,3.225,20,3.5    C20,3.776,20.224,4,20.5,4S21,3.776,21,3.5C21,3.225,21.225,3,21.5,3h7C28.775,3,29,3.225,29,3.5v25c0,0.275-0.225,0.5-0.5,0.5h-7    c-0.275,0-0.5-0.225-0.5-0.5v-22C21,6.224,20.776,6,20.5,6S20,6.224,20,6.5v22c0,0.275-0.225,0.5-0.5,0.5h-7    c-0.275,0-0.5-0.225-0.5-0.5v-22C12,6.224,11.776,6,11.5,6S11,6.224,11,6.5v22c0,0.275-0.225,0.5-0.5,0.5h-7    C3.225,29,3,28.775,3,28.5v-22C3,6.224,2.776,6,2.5,6S2,6.224,2,6.5v22C2,29.327,2.673,30,3.5,30h7c0.384,0,0.734-0.145,1-0.383    c0.266,0.238,0.616,0.383,1,0.383h7c0.384,0,0.734-0.145,1-0.383c0.266,0.238,0.616,0.383,1,0.383h7c0.827,0,1.5-0.673,1.5-1.5    v-25C30,2.673,29.327,2,28.5,2z" style="fill: #0B1719;"/>
	</g>
	<g>
		<path class="open_een" d="M7,24c1.103,0,2-0.897,2-2s-0.897-2-2-2s-2,0.897-2,2S5.897,24,7,24z M7,21c0.552,0,1,0.448,1,1    s-0.448,1-1,1s-1-0.448-1-1S6.448,21,7,21z" style="fill: #0B1719;"/>
		<path class="open_een" d="M16,24c1.103,0,2-0.897,2-2s-0.897-2-2-2s-2,0.897-2,2S14.897,24,16,24z M16,21c0.552,0,1,0.448,1,1    s-0.448,1-1,1s-1-0.448-1-1S15.448,21,16,21z" style="fill: #0B1719;"/>
		<path class="open_een" d="M25,24c1.103,0,2-0.897,2-2s-0.897-2-2-2s-2,0.897-2,2S23.897,24,25,24z M25,21c0.552,0,1,0.448,1,1    s-0.448,1-1,1s-1-0.448-1-1S24.448,21,25,21z" style="fill: #0B1719;"/>
		<path class="open_een" d="M8.5,9C8.776,9,9,8.776,9,8.5S8.776,8,8.5,8h-3C5.224,8,5,8.224,5,8.5S5.224,9,5.5,9H8.5z" style="fill: #0B1719;"/>
		<path class="open_een" d="M17.5,9C17.776,9,18,8.776,18,8.5S17.776,8,17.5,8h-3C14.224,8,14,8.224,14,8.5S14.224,9,14.5,9H17.5z" style="fill: #0B1719;"/>
		<path class="open_een" d="M26.5,9C26.776,9,27,8.776,27,8.5S26.776,8,26.5,8h-3C23.224,8,23,8.224,23,8.5S23.224,9,23.5,9H26.5z" style="fill: #0B1719;"/>
		<path class="open_een" d="M28.5,2h-7c-0.384,0-0.734,0.145-1,0.383C20.234,2.145,19.884,2,19.5,2h-7c-0.384,0-0.734,0.145-1,0.383    C11.234,2.145,10.884,2,10.5,2h-7C2.673,2,2,2.673,2,3.5C2,3.776,2.224,4,2.5,4S3,3.776,3,3.5C3,3.225,3.225,3,3.5,3h7    C10.775,3,11,3.225,11,3.5C11,3.776,11.224,4,11.5,4S12,3.776,12,3.5C12,3.225,12.225,3,12.5,3h7C19.775,3,20,3.225,20,3.5    C20,3.776,20.224,4,20.5,4S21,3.776,21,3.5C21,3.225,21.225,3,21.5,3h7C28.775,3,29,3.225,29,3.5v25c0,0.275-0.225,0.5-0.5,0.5h-7    c-0.275,0-0.5-0.225-0.5-0.5v-22C21,6.224,20.776,6,20.5,6S20,6.224,20,6.5v22c0,0.275-0.225,0.5-0.5,0.5h-7    c-0.275,0-0.5-0.225-0.5-0.5v-22C12,6.224,11.776,6,11.5,6S11,6.224,11,6.5v22c0,0.275-0.225,0.5-0.5,0.5h-7    C3.225,29,3,28.775,3,28.5v-22C3,6.224,2.776,6,2.5,6S2,6.224,2,6.5v22C2,29.327,2.673,30,3.5,30h7c0.384,0,0.734-0.145,1-0.383    c0.266,0.238,0.616,0.383,1,0.383h7c0.384,0,0.734-0.145,1-0.383c0.266,0.238,0.616,0.383,1,0.383h7c0.827,0,1.5-0.673,1.5-1.5    v-25C30,2.673,29.327,2,28.5,2z" style="fill: #0B1719;"/>
	</g>
</g>
<metadata><work rdf:about=""><format>image/svg+xml</format><type rdf:resource="http://purl.org/dc/dcmitype/StillImage"/><license rdf:resource="http://creativecommons.org/licenses/by/4.0/"/><attributionname>Ariane Garoff</attributionname><attributionurl>http://www.toicon.com/icons/open_collect</attributionurl></work></metadata></svg>
