<?xml version="1.0" encoding="UTF-8"?>
<!-- Generator: Adobe Illustrator 19.2.1, SVG Export Plug-In . SVG Version: 6.00 Build 0)  -->
<svg xmlns="http://www.w3.org/2000/svg" xmlns:xlink="http://www.w3.org/1999/xlink" xmlns:dc="http://purl.org/dc/elements/1.1/" xmlns:cc="http://creativecommons.org/ns#" xmlns:rdf="http://www.w3.org/1999/02/22-rdf-syntax-ns#" version="1.1" id="DESIGNS" x="0px" y="0px" width="32px" height="32px" viewBox="0 0 32 32" style="enable-background:new 0 0 32 32;" xml:space="preserve">
<title property="dc:title">to turn</title><desc property="dc:description">An icon for "turn" from the Stone series on to [icon]. Downloaded from http://www.toicon.com/icons/stone_turn by 91.89.199.12 on 2017-12-02. Licensed CC-BY, see http://toicon.com/license/ for details.</desc>
<path class="stone_een" d="M21.434,14.26c0.013-0.011,0.029-0.015,0.041-0.027l0.672-0.672c0.429,0.552,0.711,1.213,0.803,1.94H22  c-0.018,0-0.032,0.008-0.049,0.01C21.874,15.049,21.696,14.625,21.434,14.26z M6,9H5v3h1V9z M20.768,13.525l0.672-0.672  c-0.552-0.429-1.213-0.71-1.94-0.802V13c0,0.018-0.008,0.032-0.01,0.049c0.461,0.076,0.885,0.255,1.25,0.517  C20.751,13.553,20.756,13.537,20.768,13.525z M21.95,16.49c-0.077,0.461-0.255,0.885-0.517,1.25  c0.013,0.011,0.029,0.015,0.041,0.027l0.672,0.672c0.429-0.552,0.711-1.213,0.803-1.94H22C21.982,16.5,21.968,16.492,21.95,16.49z   M6,20H5v3h1V20z M17.232,18.475l-0.672,0.672c0.552,0.429,1.213,0.71,1.94,0.802V19c0-0.018,0.008-0.032,0.01-0.05  c-0.461-0.077-0.885-0.255-1.25-0.517C17.249,18.447,17.244,18.463,17.232,18.475z M20.74,18.434  c-0.365,0.262-0.789,0.44-1.25,0.517c0.002,0.017,0.01,0.032,0.01,0.049v0.949c0.727-0.092,1.388-0.374,1.94-0.802l-0.672-0.672  C20.756,18.463,20.751,18.447,20.74,18.434z M17,16c0,1.105,0.895,2,2,2c1.105,0,2-0.895,2-2s-0.895-2-2-2  C17.895,14,17,14.895,17,16z M6,6h20v20H6v-2c0.552,0,1-0.448,1-1v-3c0-0.552-0.448-1-1-1v-6c0.552,0,1-0.448,1-1V9  c0-0.552-0.448-1-1-1V6z M14,16c0,2.761,2.239,5,5,5s5-2.239,5-5s-2.239-5-5-5S14,13.239,14,16z M30,5v22c0,1.657-1.343,3-3,3H5  c-1.657,0-3-1.343-3-3V5c0-1.657,1.343-3,3-3h22C28.657,2,30,3.343,30,5z M27,6c0-0.552-0.448-1-1-1H6C5.448,5,5,5.448,5,6v2  C4.448,8,4,8.448,4,9v3c0,0.552,0.448,1,1,1v6c-0.552,0-1,0.448-1,1v3c0,0.552,0.448,1,1,1v2c0,0.552,0.448,1,1,1h20  c0.552,0,1-0.448,1-1V6z M16.525,17.768c0.012-0.012,0.028-0.017,0.041-0.027c-0.262-0.365-0.44-0.789-0.517-1.25  c-0.017,0.002-0.032,0.01-0.05,0.01h-0.949c0.092,0.727,0.374,1.388,0.803,1.94L16.525,17.768z M17.26,13.566  c0.365-0.262,0.789-0.44,1.25-0.517c-0.002-0.017-0.01-0.032-0.01-0.05v-0.949c-0.727,0.092-1.388,0.374-1.94,0.802l0.672,0.672  C17.244,13.537,17.249,13.553,17.26,13.566z M16.049,15.51c0.077-0.461,0.255-0.885,0.517-1.25  c-0.013-0.011-0.029-0.015-0.041-0.027l-0.672-0.672c-0.429,0.552-0.711,1.213-0.803,1.94H16  C16.018,15.5,16.032,15.508,16.049,15.51z" style="fill: #0B1719;"/>
<metadata><work rdf:about=""><format>image/svg+xml</format><type rdf:resource="http://purl.org/dc/dcmitype/StillImage"/><license rdf:resource="http://creativecommons.org/licenses/by/4.0/"/><attributionname>Shannon E Thomas</attributionname><attributionurl>http://www.toicon.com/icons/stone_turn</attributionurl></work></metadata></svg>
