<?xml version="1.0" encoding="UTF-8"?>
<!-- Generator: Adobe Illustrator 19.2.1, SVG Export Plug-In . SVG Version: 6.00 Build 0)  -->
<svg xmlns="http://www.w3.org/2000/svg" xmlns:xlink="http://www.w3.org/1999/xlink" xmlns:dc="http://purl.org/dc/elements/1.1/" xmlns:cc="http://creativecommons.org/ns#" xmlns:rdf="http://www.w3.org/1999/02/22-rdf-syntax-ns#" version="1.1" id="DESIGNS" x="0px" y="0px" width="32px" height="32px" viewBox="0 0 32 32" style="enable-background:new 0 0 32 32;" xml:space="preserve">
<title property="dc:title">to trash</title><desc property="dc:description">An icon for "trash" from the Stone series on to [icon]. Downloaded from http://www.toicon.com/icons/stone_trash by 91.89.199.12 on 2017-12-02. Licensed CC-BY, see http://toicon.com/license/ for details.</desc>
<path class="stone_een" d="M5,7h22c0.552,0,1-0.448,1-1V5c0-1.105-0.895-2-2-2h-7V2c0-0.552-0.448-1-1-1h-4c-0.552,0-1,0.448-1,1v1  H6C4.895,3,4,3.895,4,5v1C4,6.552,4.448,7,5,7z M14,2h4v1h-4V2z M5.083,8l1.764,21.166C6.934,30.203,7.8,31,8.84,31H23.16  c1.04,0,1.907-0.797,1.993-1.834L26.917,8H5.083z M12,26.5c0,0.276-0.224,0.5-0.5,0.5S11,26.776,11,26.5v-15  c0-0.276,0.224-0.5,0.5-0.5s0.5,0.224,0.5,0.5V26.5z M15,26.5c0,0.276-0.224,0.5-0.5,0.5S14,26.776,14,26.5v-15  c0-0.276,0.224-0.5,0.5-0.5s0.5,0.224,0.5,0.5V26.5z M18,26.5c0,0.276-0.224,0.5-0.5,0.5S17,26.776,17,26.5v-15  c0-0.276,0.224-0.5,0.5-0.5s0.5,0.224,0.5,0.5V26.5z M21,26.5c0,0.276-0.224,0.5-0.5,0.5S20,26.776,20,26.5v-15  c0-0.276,0.224-0.5,0.5-0.5s0.5,0.224,0.5,0.5V26.5z" style="fill: #111918;"/>
<metadata><work rdf:about=""><format>image/svg+xml</format><type rdf:resource="http://purl.org/dc/dcmitype/StillImage"/><license rdf:resource="http://creativecommons.org/licenses/by/4.0/"/><attributionname>Shannon E Thomas</attributionname><attributionurl>http://www.toicon.com/icons/stone_trash</attributionurl></work></metadata></svg>
